<?xml version="1.0" encoding="UTF-8" standalone="no"?>
<!-- Created with Inkscape (http://www.inkscape.org/) -->

<svg
   width="31.999998"
   height="31.999998"
   viewBox="0 0 8.4666661 8.4666661"
   version="1.1"
   id="svg1"
   xml:space="preserve"
   xmlns="http://www.w3.org/2000/svg"
   xmlns:svg="http://www.w3.org/2000/svg"><defs
     id="defs1" /><g
     id="layer1"><g
       style="clip-rule:evenodd;fill-rule:evenodd;image-rendering:optimizeQuality;shape-rendering:geometricPrecision;text-rendering:geometricPrecision"
       id="g1"
       transform="matrix(0.00635002,0,0,0.00635002,-2.7499667e-6,1.7773145)"><path
         d="m 1333.33,753.49 c -48.5,12.33 -78.5,0.54 -105.41,-39.87 L 1036.5,448.79 1008.83,412.12 785.29,714.5 c -25.54,36.38 -52.33,52.2 -100,39.33 L 971.54,369.58 705.04,22.49 c 45.83,-8.91 77.5,-4.38 105.62,36.67 l 198.54,268.13 200,-266.67 c 25.62,-36.38 53.17,-50.2 99.17,-36.8 l -103.33,137 -140,182.29 c -16.67,20.83 -14.38,35.09 0.96,55.2 z M 0.34,363.16 23.75,247.99 c 63.75,-227.92 325,-322.63 505.17,-181.8 105.29,82.83 131.46,200 126.25,331.25 H 61.67 c -8.91,236.25 161.13,378.83 377.91,306.09 76.04,-25.54 120.83,-85.09 143.25,-159.58 11.38,-37.33 30.2,-43.17 65.29,-32.5 -17.91,93.17 -58.33,171 -143.75,219.71 -127.62,72.91 -309.8,49.33 -405.62,-52 C 41.66,620.36 18.08,545.87 7.5,466.2 5.83,453.03 2.5,440.49 0,427.87 0.22,406.31 0.34,384.76 0.34,363.2 Z M 62.75,347.33 H 599.08 C 595.58,176.5 489.21,55.16 343.83,54.13 184.25,52.88 69.66,171.33 62.74,347.33 Z"
         fill-rule="nonzero"
         id="path1" /></g></g></svg>
