<?xml version="1.0" encoding="UTF-8" standalone="no"?>
<!-- Created with Inkscape (http://www.inkscape.org/) -->

<svg
   width="32"
   height="32"
   viewBox="0 0 32 32"
   version="1.1"
   id="svg1"
   xml:space="preserve"
   xmlns="http://www.w3.org/2000/svg"
   xmlns:svg="http://www.w3.org/2000/svg"><defs
     id="defs1" /><g
     id="layer1"><g
       style="fill:none"
       id="g1"
       transform="matrix(1.1428571,0,0,1.1428571,-2.2857143,-2.2857143)"><rect
         x="2"
         y="2"
         width="28"
         height="28"
         fill="#ffca28"
         id="rect1" /><path
         d="m 19,25.2879 2.0615,-1.3642 c 0.1616,0.5076 1.1847,1.7131 2.477,1.7131 1.2923,0 1.8923,-0.7058 1.8923,-1.1738 0,-1.2752 -1.3196,-1.7248 -1.9534,-1.9407 -0.1034,-0.0352 -0.1884,-0.0642 -0.2466,-0.0895 -0.0299,-0.013 -0.075,-0.0303 -0.1329,-0.0524 -0.7049,-0.2693 -3.3056,-1.2629 -3.3056,-4.1431 0,-3.1723 3.0615,-3.5371 3.7539,-3.5371 0.4529,0 2.6307,0.0555 3.7153,2.0937 l -2,1.3959 c -0.4384,-0.8883 -1.1669,-1.1817 -1.6153,-1.1817 -1.1077,0 -1.3385,0.812 -1.3385,1.1817 0,1.0372 1.2035,1.5021 2.2196,1.8946 0.2659,0.1027 0.5189,0.2004 0.7342,0.3022 C 26.3692,20.91 28,21.7666 28,24.463 c 0,1.3506 -1.1328,3.5372 -3.9846,3.5372 -3.8308,0 -4.8462,-2.2999 -5.0154,-2.7123 z"
         fill="#3e3e3e"
         id="path1" /><path
         d="m 9,25.5587 2.1487,-1.3634 c 0.1683,0.5073 0.8226,1.4427 1.7718,1.4427 0.9493,0 1.4352,-0.975 1.4352,-1.4427 v -9.1951 h 2.6425 v 9.1951 c 0.0428,1.2683 -0.6606,3.8049 -3.765,3.8049 -2.8542,0 -4.04078,-1.6963 -4.2332,-2.4415 z"
         fill="#3e3e3e"
         id="path2" /></g></g></svg>
