<?xml version="1.0" encoding="UTF-8" standalone="no"?>
<!-- Created with Inkscape (http://www.inkscape.org/) -->

<svg
   width="31.999998"
   height="31.999998"
   viewBox="0 0 8.4666661 8.4666661"
   version="1.1"
   id="svg1"
   xml:space="preserve"
   xmlns="http://www.w3.org/2000/svg"
   xmlns:svg="http://www.w3.org/2000/svg"><defs
     id="defs1" /><g
     id="layer1"><g
       style="fill:none"
       id="g1"
       transform="scale(0.26458338)"><path
         d="M 16.0497,8.44062 C 22.6378,3.32607 19.2566,0 19.2566,0 c 0.5032,5.28738 -5.4436,6.53583 -7.0377,10.1692 -1.0877,2.4793 0.7449,4.6501 3.8286,7.3862 -0.2726,-0.606 -0.6931,-1.1948 -1.1187,-1.7909 -1.4519,-2.0332 -2.9643,-4.1513 1.1209,-7.32388 z"
         fill="#e76f00"
         id="path1" /><path
         d="m 17.1015,18.677 c 0,0 1.982,-1.5991 0.4124,-3.3762 -5.3208,-6.02894 5.8194,-8.76497 5.8194,-8.76497 -6.8016,3.27667 -5.7862,5.22157 -4.0766,7.58437 1.8304,2.5336 -2.1552,4.5568 -2.1552,4.5568 z"
         fill="#e76f00"
         id="path2" /><path
         d="m 22.937,23.4456 c 6.1053,-3.1198 3.2825,-6.1178 1.3122,-5.7139 -0.483,0.0988 -0.6983,0.1845 -0.6983,0.1845 0,0 0.1793,-0.2762 0.5217,-0.3958 3.8979,-1.3475 6.8956,3.9745 -1.2583,6.0824 0,1e-4 0.0945,-0.083 0.1227,-0.1572 z"
         fill="#5382a1"
         id="path3" /><path
         d="m 10.233,19.4969 c -3.81988,-0.5016 2.0945,-1.883 2.0945,-1.883 0,0 -2.2968,-0.1523 -5.12158,1.1904 -3.34015,1.5889 8.26218,2.3115 14.26808,0.7582 0.6244,-0.4193 1.4874,-0.7827 1.4874,-0.7827 0,0 -2.4577,0.4316 -4.9053,0.6347 -2.9949,0.2467 -6.2102,0.2948 -7.8231,0.0824 z"
         fill="#5382a1"
         id="path4" /><path
         d="M 11.6864,22.4758 C 9.55624,22.2592 10.951,21.2439 10.951,21.2439 c -5.51202,1.799 3.0668,3.8391 10.7689,1.6243 -0.8187,-0.2838 -1.3393,-0.8029 -1.3393,-0.8029 -3.7643,0.7128 -5.9396,0.69 -8.6942,0.4105 z"
         fill="#5382a1"
         id="path5" /><path
         d="m 12.6145,25.6991 c -2.1285,-0.2406 -0.885,-0.9517 -0.885,-0.9517 -5.00356,1.3748 3.0434,4.2151 9.4138,1.5303 -1.0434,-0.399 -1.7905,-0.8596 -1.7905,-0.8596 -2.8417,0.5288 -4.1597,0.5703 -6.7383,0.281 z"
         fill="#5382a1"
         id="path6" /><path
         d="m 25.9387,27.3388 c 0,0 0.9202,0.7456 -1.0135,1.3224 C 21.2481,29.7566 9.62093,30.0874 6.39094,28.7049 5.22984,28.2082 7.40723,27.5189 8.09215,27.3742 8.80646,27.2219 9.21466,27.2503 9.21466,27.2503 7.9234,26.3558 0.868489,29.0067 5.63111,29.7659 18.6195,31.8372 29.3077,28.8331 25.9387,27.3388 Z"
         fill="#5382a1"
         id="path7" /><path
         d="M 28,28.9679 C 27.7869,31.6947 18.7877,32.2683 12.9274,31.8994 9.10432,31.6583 8.33812,31.0558 8.32691,31.047 11.9859,31.6402 18.1549,31.7482 23.1568,30.8225 27.5903,30.0016 28,28.9679 28,28.9679 Z"
         fill="#5382a1"
         id="path8" /></g></g></svg>
