<?xml version="1.0" encoding="UTF-8" standalone="no"?>
<!-- Created with Inkscape (http://www.inkscape.org/) -->

<svg
   width="32"
   height="32"
   viewBox="0 0 32 32"
   version="1.1"
   id="svg1"
   xml:space="preserve"
   xmlns="http://www.w3.org/2000/svg"
   xmlns:svg="http://www.w3.org/2000/svg"><defs
     id="defs1" /><g
     id="layer1"><path
       d="m 31.532782,7.2346894 c 0.01154,0.042683 0.01754,0.086693 0.01754,0.1309064 v 6.8722812 c 0,0.179541 -0.09605,0.345363 -0.251791,0.434684 l -5.768032,3.320894 v 6.582282 c 0,0.179134 -0.0952,0.34449 -0.250539,0.434684 l -12.040271,6.931157 c -0.02756,0.01566 -0.05762,0.02568 -0.08769,0.03633 -0.01128,0.0037 -0.02192,0.01064 -0.03383,0.01378 -0.08417,0.02216 -0.172637,0.02216 -0.256802,0 -0.01378,-0.0037 -0.02631,-0.01128 -0.03946,-0.01629 -0.02756,-0.01002 -0.05637,-0.01879 -0.08268,-0.03383 L 0.70146947,25.010422 C 0.54581944,24.921005 0.449678,24.755242 0.449678,24.575737 V 3.9588938 c 0,-0.045097 0.006263,-0.088941 0.0175377,-0.131533 0.003756,-0.014406 0.0125271,-0.027559 0.0175377,-0.041965 0.009395,-0.026307 0.0181643,-0.05324 0.0319438,-0.077667 0.009395,-0.016285 0.0231748,-0.029439 0.0344491,-0.044471 0.0144062,-0.020043 0.0275591,-0.040713 0.0444706,-0.058251 0.0144062,-0.014406 0.0331967,-0.025054 0.0494815,-0.037581 0.0181639,-0.015032 0.0344491,-0.031318 0.0551187,-0.043218 h 6.2542e-4 L 6.7200378,0.05863039 c 0.1551032,-0.08925185 0.3459749,-0.08925185 0.5010777,0 L 13.240313,3.5242091 h 0.0012 c 0.02004,0.012527 0.03695,0.028186 0.05511,0.042591 0.01629,0.012527 0.03445,0.023802 0.04885,0.037581 0.01754,0.018164 0.03007,0.038834 0.0451,0.058877 0.01064,0.015032 0.02506,0.028186 0.03383,0.044471 0.0144,0.025054 0.02255,0.05136 0.03257,0.077667 0.005,0.014406 0.01378,0.027559 0.01754,0.042591 0.01153,0.042683 0.01743,0.086693 0.01754,0.1309068 V 16.835964 l 5.015788,-2.888086 V 7.3649696 c 0,-0.043844 0.0063,-0.088315 0.01754,-0.1302802 0.0044,-0.015032 0.01253,-0.028186 0.01754,-0.042591 0.01002,-0.026306 0.01879,-0.053239 0.03257,-0.077668 0.0094,-0.016285 0.02317,-0.029439 0.03383,-0.044471 0.01503,-0.020043 0.02756,-0.040712 0.0451,-0.05825 0.0144,-0.014407 0.03257,-0.025054 0.04886,-0.037581 0.01879,-0.015032 0.03508,-0.031317 0.05512,-0.043218 h 6.09e-4 l 6.019828,-3.4655782 c 0.155069,-0.08938 0.34601,-0.08938 0.501077,0 l 6.019219,3.4655789 c 0.0213,0.012526 0.03758,0.028186 0.05637,0.042591 0.01566,0.012526 0.03383,0.023801 0.04823,0.037581 0.01754,0.018164 0.03007,0.038834 0.0451,0.058877 0.01128,0.015032 0.02506,0.028186 0.03383,0.044471 0.0144,0.024427 0.02255,0.05136 0.03257,0.077668 0.0056,0.014406 0.01378,0.027559 0.01754,0.042591 z m -0.98587,6.7131886 V 8.2330866 l -2.106405,1.2126081 -2.910009,1.6754793 v 5.71479 l 5.017041,-2.888086 z m -6.019196,10.337859 v -5.718549 l -2.862407,1.634765 -8.17383,4.665034 v 5.772416 z M 1.4530862,4.8263846 V 24.285737 l 11.0349848,6.353039 v -5.771163 l -5.7648997,-3.262642 -0.00188,-0.0012 -0.00251,-0.0012 c -0.019417,-0.01127 -0.035702,-0.02756 -0.053866,-0.04134 -0.015659,-0.01253 -0.033822,-0.02255 -0.047603,-0.03633 l -0.00125,-0.0019 c -0.016285,-0.01565 -0.027559,-0.03508 -0.041338,-0.05262 -0.012527,-0.01691 -0.027559,-0.03132 -0.037581,-0.04885 l -6.294e-4,-0.0019 c -0.011274,-0.01879 -0.018164,-0.04133 -0.026306,-0.06263 -0.00814,-0.01879 -0.018791,-0.03633 -0.023801,-0.05637 v -6.05e-4 c -0.00626,-0.0238 -0.00752,-0.04886 -0.010023,-0.07329 -0.00251,-0.01879 -0.00752,-0.03758 -0.00752,-0.05637 V 21.169036 7.7144733 L 3.5594917,6.0383661 1.4530862,4.8270108 Z M 6.9712047,1.0720596 1.9560429,3.9588938 6.9699522,6.8457277 11.984488,3.9582672 6.9699522,1.0720596 Z M 9.5793145,19.088309 12.488697,17.413456 V 4.8263846 L 10.382292,6.0389927 7.4722823,7.7144713 V 20.301544 Z M 25.02942,4.478762 20.014885,7.3655958 25.02942,10.25243 30.043329,7.3649696 Z M 24.527716,11.121174 21.617707,9.4456947 19.511302,8.2330866 v 5.7147914 l 2.909383,1.674852 2.107031,1.213234 z m -11.538567,12.878321 7.355195,-4.199029 3.676657,-2.098263 -5.010777,-2.884955 -5.769284,3.321518 -5.2581844,3.027136 z"
       fill="#ff2d20"
       id="path1"
       style="stroke-width:0.121487" /></g></svg>
