<?xml version="1.0" encoding="UTF-8" standalone="no"?>
<!-- Created with Inkscape (http://www.inkscape.org/) -->

<svg
   width="31.999998"
   height="31.999998"
   viewBox="0 0 8.4666661 8.4666661"
   version="1.1"
   id="svg1"
   xml:space="preserve"
   xmlns="http://www.w3.org/2000/svg"
   xmlns:svg="http://www.w3.org/2000/svg"><defs
     id="defs1" /><g
     id="layer1"><path
       fill="#83cd29"
       d="M 7.683255,1.8760275 4.5956132,0.08318295 c -0.1947237,-0.1109106 -0.4482638,-0.1109106 -0.6445279,0 L 0.83046462,1.8760275 C 0.62950892,1.9916294 0.48729994,2.2088993 0.48729994,2.4412934 v 3.5809278 c 0,0.2323941 0.14592008,0.4497341 0.34687568,0.5659661 L 1.6586529,7.0564764 C 2.0527216,7.25057 2.1919902,7.25057 2.3713094,7.25057 c 0.583471,0 0.9167631,-0.3528273 0.9167631,-0.9682271 V 2.7470676 c 0,-0.049924 -0.025977,-0.124214 -0.074991,-0.124214 H 2.8193631 c -0.049854,0 -0.1614645,0.07429 -0.1614645,0.1241441 v 3.5352751 c 0,0.2727954 -0.2467481,0.5442604 -0.7078951,0.3136867 L 1.0980783,6.104914 C 1.0683902,6.0888107 1.0474543,6.0563907 1.0474543,6.0222212 V 2.4412934 c 0,-0.033749 0.038861,-0.067639 0.068759,-0.084933 L 4.2267514,0.56659621 c 0.029058,-0.0164553 0.07177,-0.0164553 0.1007577,0 L 7.4000968,2.3559399 c 0.029408,0.017715 0.019046,0.050554 0.019046,0.085354 v 3.5809278 c 0,0.034169 0.012814,0.067429 -0.016244,0.083883 L 4.316028,7.8969183 c -0.026467,0.015894 -0.059307,0.015894 -0.088294,0 L 3.436025,7.4243579 C 3.412149,7.4104939 3.383791,7.4055239 3.360894,7.4183379 3.1406133,7.5431823 3.1000022,7.5597768 2.8933749,7.6314066 c -0.050834,0.017715 -0.1258246,0.048453 0.028708,0.1350672 l 1.0361458,0.6129493 a 0.65075952,0.65075952 0 0 0 0.3253796,0.087244 c 0.1149718,0 0.2275628,-0.029828 0.3267803,-0.087244 L 7.6831849,6.5881873 C 7.8841405,6.4711151 7.9793667,6.2546153 7.9793667,6.0222212 V 2.4412934 c 0,-0.2323941 -0.095226,-0.4491039 -0.2961117,-0.5652659 z M 5.2423114,5.4547848 c -0.8210464,0 -1.0019061,-0.2265128 -1.062193,-0.6347953 -0.007,-0.043972 -0.044322,-0.096557 -0.089065,-0.096557 H 3.6897732 c -0.049643,0 -0.089555,0.060216 -0.089555,0.1096501 0,0.5227642 0.2842085,1.1561589 1.642163,1.1561589 0.9830011,0 1.5465868,-0.3819553 1.5465868,-1.0579216 0,-0.670225 -0.4528151,-0.8461134 -1.4061281,-0.9722885 C 4.4192344,3.8316668 4.3213475,3.7673191 4.3213475,3.541577 c 0,-0.1861115 0.082903,-0.43433 0.7963997,-0.43433 0.6375258,0 0.8725108,0.1368178 0.9692073,0.5665264 0.00826,0.040401 0.045162,0.069389 0.086824,0.069389 h 0.402891 c 0.024786,0 0.048453,-0.010014 0.065818,-0.027728 0.016805,-0.019046 0.025697,-0.042922 0.023458,-0.068549 -0.062387,-0.7399642 -0.553993,-1.0848093 -1.5482672,-1.0848093 -0.884414,0 -1.4120094,0.3734831 -1.4120094,0.9995257 0,0.6790475 0.5249347,0.8666992 1.373919,0.9506523 1.0156301,0.099568 1.0946119,0.2480083 1.0946119,0.4477736 0,0.3469456 -0.2785368,0.4947566 -0.9318872,0.4947566 z"
       id="path1"
       style="stroke-width:0.0700192" /></g></svg>
