<?xml version="1.0" encoding="UTF-8" standalone="no"?>
<!-- Created with Inkscape (http://www.inkscape.org/) -->

<svg
   width="32"
   height="32"
   viewBox="0 0 32 32"
   version="1.1"
   id="svg1"
   xml:space="preserve"
   xmlns="http://www.w3.org/2000/svg"
   xmlns:svg="http://www.w3.org/2000/svg"><defs
     id="defs1"><radialGradient
       id="a"
       cx="-16.114"
       cy="20.532"
       r="18.384001"
       gradientTransform="translate(26.52,-9.307)"
       gradientUnits="userSpaceOnUse"><stop
         offset="0"
         stop-color="#ffffff"
         id="stop1" /><stop
         offset="0.5"
         stop-color="#4c6b96"
         id="stop2" /><stop
         offset="1"
         stop-color="#231f20"
         id="stop3" /></radialGradient></defs><g
     id="layer1"><g
       id="g1"
       transform="matrix(1.1428571,0,0,1.1428571,-2.2857136,-2.2857136)"><ellipse
         cx="16"
         cy="16"
         rx="14"
         ry="7.3649998"
         style="fill:url(#a)"
         id="ellipse3" /><ellipse
         cx="16"
         cy="16"
         rx="13.453"
         ry="6.8179998"
         style="fill:#6280b6"
         id="ellipse4" /><path
         d="m 18.725,18.2 0.667,-3.434 a 1.752,1.752 0 0 0 -0.372,-1.719 2.929,2.929 0 0 0 -2,-0.525 h -1.153 l 0.331,-1.7 a 0.219,0.219 0 0 0 -0.215,-0.26 h -1.6 a 0.219,0.219 0 0 0 -0.215,0.177 l -0.709,3.646 a 2.051,2.051 0 0 0 -0.477,-1.054 2.783,2.783 0 0 0 -2.2,-0.807 H 7.7 a 0.219,0.219 0 0 0 -0.215,0.177 l -1.434,7.38 a 0.219,0.219 0 0 0 0.215,0.26 h 1.603 a 0.219,0.219 0 0 0 0.215,-0.177 l 0.347,-1.785 h 1.2 a 5.167,5.167 0 0 0 1.568,-0.2 3.068,3.068 0 0 0 1.15,-0.689 3.538,3.538 0 0 0 0.68,-0.844 l -0.287,1.475 a 0.219,0.219 0 0 0 0.215,0.26 h 1.6 a 0.219,0.219 0 0 0 0.215,-0.177 l 0.787,-4.051 h 1.094 c 0.466,0 0.6,0.093 0.64,0.133 0.04,0.04 0.1,0.165 0.025,0.569 l -0.635,3.265 a 0.219,0.219 0 0 0 0.215,0.26 h 1.62 A 0.219,0.219 0 0 0 18.725,18.2 Z M 11.33,15.366 a 1.749,1.749 0 0 1 -0.561,1.092 2.171,2.171 0 0 1 -1.315,0.321 H 8.742 l 0.515,-2.651 h 0.921 c 0.677,0 0.949,0.145 1.059,0.266 a 1.181,1.181 0 0 1 0.093,0.972 z"
         style="fill:#ffffff"
         id="path4" /><path
         d="m 25.546,13.332 a 2.783,2.783 0 0 0 -2.2,-0.807 h -3.091 a 0.219,0.219 0 0 0 -0.215,0.177 l -1.434,7.38 a 0.219,0.219 0 0 0 0.215,0.26 h 1.608 a 0.219,0.219 0 0 0 0.215,-0.177 l 0.347,-1.785 h 1.2 a 5.167,5.167 0 0 0 1.568,-0.2 3.068,3.068 0 0 0 1.15,-0.689 3.425,3.425 0 0 0 1.076,-1.927 2.512,2.512 0 0 0 -0.439,-2.232 z m -1.667,2.034 A 1.749,1.749 0 0 1 23.318,16.458 2.171,2.171 0 0 1 22,16.778 h -0.71 l 0.515,-2.651 h 0.921 c 0.677,0 0.949,0.145 1.059,0.266 a 1.181,1.181 0 0 1 0.094,0.973 z"
         style="fill:#ffffff"
         id="path5" /><path
         d="m 10.178,13.908 a 1.645,1.645 0 0 1 1.221,0.338 1.34,1.34 0 0 1 0.145,1.161 A 1.945,1.945 0 0 1 10.902,16.63 2.361,2.361 0 0 1 9.454,17 H 8.476 l 0.6,-3.089 z M 6.261,20.124 H 7.869 L 8.25,18.162 h 1.377 a 4.931,4.931 0 0 0 1.5,-0.191 2.84,2.84 0 0 0 1.07,-0.642 3.207,3.207 0 0 0 1.01,-1.808 2.3,2.3 0 0 0 -0.385,-2.044 2.568,2.568 0 0 0 -2.035,-0.732 H 7.7 Z"
         style="fill:#000004"
         id="path6" /><path
         d="m 14.387,10.782 h 1.6 L 15.6,12.744 h 1.421 a 2.767,2.767 0 0 1 1.85,0.468 1.548,1.548 0 0 1 0.305,1.516 l -0.667,3.434 H 16.89 l 0.635,-3.265 a 0.886,0.886 0 0 0 -0.08,-0.76 1.121,1.121 0 0 0 -0.8,-0.2 H 15.37 l -0.822,4.228 h -1.6 z"
         style="fill:#000004"
         id="path7" /><path
         d="m 22.727,13.908 a 1.645,1.645 0 0 1 1.221,0.338 1.34,1.34 0 0 1 0.145,1.161 A 1.945,1.945 0 0 1 23.451,16.63 2.361,2.361 0 0 1 22,17 h -0.978 l 0.6,-3.089 z m -3.917,6.216 h 1.608 l 0.381,-1.962 h 1.377 a 4.931,4.931 0 0 0 1.5,-0.191 2.84,2.84 0 0 0 1.07,-0.642 3.207,3.207 0 0 0 1.01,-1.808 2.3,2.3 0 0 0 -0.385,-2.044 2.568,2.568 0 0 0 -2.035,-0.732 h -3.092 z"
         style="fill:#000004"
         id="path8" /></g></g></svg>
