<?xml version="1.0" encoding="UTF-8" standalone="no"?>
<!-- Created with Inkscape (http://www.inkscape.org/) -->

<svg
   width="31.999998"
   height="31.999998"
   viewBox="0 0 8.4666661 8.4666661"
   version="1.1"
   id="svg1"
   xml:space="preserve"
   xmlns="http://www.w3.org/2000/svg"
   xmlns:svg="http://www.w3.org/2000/svg"><defs
     id="defs1" /><g
     id="layer1"><path
       fill="#00d8ff"
       d="M 6.9612855,2.9084459 A 5.6716732,5.6716732 0 0 0 6.688765,2.8225559 C 6.704146,2.7597169 6.718298,2.6976395 6.730865,2.6366531 6.9371736,1.6351723 6.8023018,0.82835883 6.3416297,0.56271719 5.8999413,0.30805585 5.1775956,0.57359795 4.4480732,1.2084988 A 5.6630742,5.6630742 0 0 0 4.2372338,1.4019092 5.154942,5.154942 0 0 0 4.0969711,1.2723626 C 3.332392,0.59350814 2.5660263,0.30739439 2.1058503,0.57379665 1.6645581,0.82925177 1.5338875,1.5877127 1.7196246,2.5368391 a 5.6546075,5.6546075 0 0 0 0.062575,0.2804582 C 1.67372,2.848121 1.5690449,2.8809298 1.4688665,2.9158546 0.57245886,3.2283935 0,3.7181703 0,4.2262032 0,4.750905 0.61456047,5.2771941 1.5482087,5.5963146 a 4.8127697,4.8127697 0 0 0 0.2288977,0.071603 5.5386208,5.5386208 0 0 0 -0.066476,0.3022202 c -0.1770723,0.9326565 -0.038796,1.6731914 0.4013075,1.9270266 0.4545535,0.2621358 1.2174796,-0.0073 1.9603302,-0.656663 A 4.8143242,4.8143242 0 0 0 4.2489429,7.0776833 5.5583654,5.5583654 0 0 0 4.4778076,7.2865055 C 5.1974084,7.9056963 5.9080789,8.1557276 6.3477501,7.9011987 6.8018743,7.6383023 6.9494785,6.8427659 6.7578543,5.8748875 A 4.796101,4.796101 0 0 0 6.7070887,5.6486027 c 0.05358,-0.015875 0.1061642,-0.032213 0.1574277,-0.049212 0.9706234,-0.3215679 1.6021503,-0.841474 1.6021503,-1.3731872 0,-0.5098851 -0.5909465,-1.002969 -1.5053794,-1.3177572 z M 6.7507765,5.2560933 C 6.7044729,5.2714059 6.6569821,5.2861893 6.6085633,5.3005765 6.5014069,4.9613477 6.3568122,4.6006545 6.1798388,4.2279559 6.3487093,3.8641539 6.4877474,3.5080579 6.5918944,3.171045 c 0.086622,0.025069 0.1706562,0.051494 0.2516843,0.079375 0.7834978,0.2697427 1.2614008,0.6685027 1.2614008,0.9757831 0,0.3272895 -0.5161358,0.7521772 -1.354203,1.0298902 z m -0.3477284,0.689041 c 0.084734,0.4279635 0.096805,0.8149165 0.040675,1.1174342 -0.0504,0.2718267 -0.1518043,0.4530332 -0.2772167,0.525628 C 5.899707,7.7426469 5.3290998,7.5418929 4.7137128,7.012331 A 5.1833847,5.1833847 0 0 1 4.5008223,6.8181926 C 4.73941,6.5572808 4.9778329,6.2539691 5.2105336,5.9170885 5.6198442,5.8807742 6.0065321,5.8213755 6.3572041,5.7403138 a 4.4373922,4.4373922 0 0 1 0.04584,0.2048205 z M 2.8864713,7.5615063 C 2.6257908,7.6535488 2.4181594,7.6561948 2.2926472,7.5838342 2.0255836,7.429814 1.9145583,6.8351964 2.0659993,6.0376097 a 5.1899001,5.1899001 0 0 1 0.061809,-0.2810866 c 0.3468022,0.076729 0.7306793,0.1318948 1.1409492,0.1651661 0.2342886,0.3296377 0.4795898,0.6326186 0.7268103,0.8979293 A 4.4538625,4.4538625 0 0 1 3.8342715,6.9681818 C 3.5057584,7.255321 3.1765834,7.4590506 2.8864677,7.5615098 Z M 1.6652217,5.2540759 C 1.2523725,5.1129538 0.91142355,4.9295646 0.67773071,4.7294404 0.46771782,4.549623 0.36171922,4.3710623 0.36171922,4.226203 c 0,-0.3083057 0.45961407,-0.7015426 1.22621048,-0.9688047 0.093035,-0.032412 0.1904013,-0.063004 0.2914391,-0.091711 0.1059657,0.3446196 0.2449379,0.704949 0.4126505,1.0693133 C 2.1221238,4.6047555 1.9811672,4.9708395 1.8741765,5.3195272 A 4.4555162,4.4555162 0 0 1 1.6652217,5.2540759 Z M 2.0745982,2.4673526 C 1.9154846,1.654189 2.0211518,1.0407858 2.2870915,0.88683147 2.570328,0.72285595 3.1966626,0.95664843 3.8568311,1.5428325 A 4.7730161,4.7730161 0 0 1 3.9838636,1.660076 C 3.7378676,1.9242293 3.4948152,2.2249612 3.2626098,2.5526477 2.8644123,2.5895569 2.4832472,2.6488236 2.1328059,2.7282317 A 5.3029764,5.3029764 0 0 1 2.0745947,2.4673856 Z M 5.7267397,3.3691847 A 11.502758,11.502758 0 0 0 5.4692672,2.9457522 C 5.739407,2.9799166 5.998236,3.0252592 6.2412884,3.0806897 6.1683284,3.3145813 6.0773787,3.5590893 5.970322,3.809782 A 12.605772,12.605772 0 0 0 5.7267397,3.3691847 Z M 4.2374013,1.9185738 C 4.4042206,2.0993172 4.5713045,2.301095 4.7356444,2.5200377 A 10.650799,10.650799 0 0 0 3.7349571,2.5198393 C 3.8994617,2.3029141 4.0679679,2.1014008 4.2374013,1.9185738 Z M 2.7385038,3.3716651 A 10.688073,10.688073 0 0 0 2.4994859,3.8094843 C 2.3941811,3.5596846 2.3040579,3.3140521 2.2304709,3.0768532 2.4720351,3.0228119 2.7296403,2.9786267 2.9980595,2.9450908 A 10.633734,10.633734 0 0 0 2.7385038,3.3716321 Z M 3.005766,5.5330459 C 2.7284495,5.5020895 2.4669746,5.4601865 2.2254763,5.4076004 2.3002175,5.1661681 2.3923295,4.9153101 2.4999152,4.6601526 a 10.622589,10.622589 0 0 0 0.24001,0.4380837 C 2.8257191,5.246403 2.9145509,5.3915269 3.005766,5.5330459 Z M 4.2473887,6.5592983 C 4.075939,6.3743545 3.9049515,6.1697324 3.7379665,5.9496654 c 0.162124,0.00635 0.3273892,0.00959 0.4953664,0.00959 0.1725746,0 0.3431649,-0.00387 0.5110752,-0.011344 -0.164868,0.2240358 -0.331324,0.4289555 -0.4970194,0.6113857 z M 5.9737286,4.6471219 C 6.0869039,4.9050905 6.1822862,5.1546256 6.2580232,5.3919238 6.0125563,5.4479494 5.7475099,5.4930607 5.4682421,5.5265636 A 12.647642,12.647642 0 0 0 5.728162,5.0957559 11.489628,11.489628 0 0 0 5.9737286,4.6471219 Z M 5.4148625,4.9150455 a 11.858523,11.858523 0 0 1 -0.4061686,0.6553397 10.894216,10.894216 0 0 1 -0.775361,0.027219 c -0.2634922,0 -0.519774,-0.0082 -0.7665643,-0.02421 A 10.259282,10.259282 0 0 1 3.0529273,4.9170302 h 3.38e-5 A 10.166943,10.166943 0 0 1 2.691705,4.2348353 10.261796,10.261796 0 0 1 3.0518692,3.5523096 l -3.29e-5,3.31e-5 A 10.1639,10.1639 0 0 1 3.4623707,2.898789 C 3.7141548,2.8797394 3.9723549,2.869817 4.2333,2.869817 h 3.29e-5 c 0.2621358,0 0.5206664,0.010021 0.7723846,0.029203 A 10.892794,10.892794 0 0 1 5.4136717,3.5503914 11.856274,11.856274 0 0 1 5.7786649,4.2297089 10.896598,10.896598 0 0 1 5.4148625,4.9150455 Z M 6.160987,0.87604965 C 6.444488,1.0395621 6.5547536,1.6989366 6.3766224,2.5636278 6.3652491,2.6187931 6.3524775,2.6749843 6.3385927,2.7319689 5.987292,2.650874 5.6058623,2.5905822 5.206507,2.5531106 4.9738723,2.2218193 4.7328033,1.9206243 4.490809,1.6598775 A 5.31776,5.31776 0 0 1 4.6855387,1.4812838 C 5.3106166,0.93733372 5.8948166,0.72255831 6.160987,0.87604965 Z M 4.2333329,3.4701562 c 0.4175454,0 0.7560469,0.3385013 0.7560469,0.7560468 0,0.4175455 -0.3385015,0.7560466 -0.7560469,0.7560466 -0.4175454,0 -0.7560469,-0.3385011 -0.7560469,-0.7560466 0,-0.4175455 0.3385015,-0.7560468 0.7560469,-0.7560468 z"
       id="path1"
       style="stroke-width:0.0330729" /></g></svg>
