<?xml version="1.0" encoding="UTF-8" standalone="no"?>
<!-- Created with Inkscape (http://www.inkscape.org/) -->

<svg
   width="32"
   height="32"
   viewBox="0 0 32 32"
   version="1.1"
   id="svg1"
   xml:space="preserve"
   xmlns="http://www.w3.org/2000/svg"
   xmlns:svg="http://www.w3.org/2000/svg"><defs
     id="defs1" /><g
     id="layer1"><path
       d="M 8,12.8 Q 9.6,6.4 16,6.4 c 6.4,0 7.2,4.8 10.4,5.6 Q 29.6,12.8 32,9.6 30.4,16 24,16 C 17.6,16 16.8,11.2 13.6,10.4 Q 10.4,9.6 8,12.8 Z M 0,22.4 Q 1.6,16 8,16 c 6.4,0 7.2,4.8 10.4,5.6 q 3.2,0.8 5.6,-2.4 -1.6,6.4 -8,6.4 C 9.6,25.6 8.8,20.8 5.6,20 Q 2.4,19.2 0,22.4 Z"
       style="fill:#44a8b3;stroke-width:1.14286"
       id="path1" /></g></svg>
